<svg width="17" height="19" viewBox="0 0 17 19" fill="none" xmlns="http://www.w3.org/2000/svg">
<rect width="17" height="19" fill="#1E1E1E"/>
<g clip-path="url(#clip0_0_1)">
<rect x="2" width="13" height="19" rx="2" fill="#1E1E1E"/>
<path d="M0 2.53846C0 1.98618 0.447715 1.53846 1 1.53846H1.5V7.46154H1C0.447715 7.46154 0 7.01382 0 6.46154V2.53846Z" fill="#1E1E1E"/>
<path d="M0 11.5385C0 10.9862 0.447715 10.5385 1 10.5385H1.5V16.4615H1C0.447715 16.4615 0 16.0138 0 15.4615V11.5385Z" fill="#1E1E1E"/>
<path d="M17 2.53846C17 1.98618 16.5523 1.53846 16 1.53846H15.5V7.46154H16C16.5523 7.46154 17 7.01382 17 6.46154V2.53846Z" fill="#1E1E1E"/>
<path d="M17 11.5385C17 10.9862 16.5523 10.5385 16 10.5385H15.5V16.4615H16C16.5523 16.4615 17 16.0138 17 15.4615V11.5385Z" fill="#1E1E1E"/>
</g>
<defs>
<clipPath id="clip0_0_1">
<rect width="17" height="19" fill="white"/>
</clipPath>
</defs>
</svg>
